<?xml version="1.0" encoding="UTF-8"?>
<svg width="155px" height="20px" viewBox="0 0 155 20" version="1.1" xmlns="http://www.w3.org/2000/svg" xmlns:xlink="http://www.w3.org/1999/xlink">
    <!-- Generator: Sketch 46 (44423) - http://www.bohemiancoding.com/sketch -->
    <title>hello-sketch-logo</title>
    <desc>Created with Sketch.</desc>
    <defs></defs>
    <g id="Landing" stroke="none" stroke-width="1" fill="none" fill-rule="evenodd">
        <path d="M10.78,19 L10.78,11.896 L4.156,11.896 L4.156,19 L0.052,19 L0.052,2.008 L4.156,2.008 L4.156,8.44 L10.78,8.44 L10.78,2.008 L14.884,2.008 L14.884,19 L10.78,19 Z M18.388,19 L18.388,2.008 L29.812,2.008 L29.812,5.488 L22.348,5.488 L22.348,8.68 L29.404,8.68 L29.404,11.968 L22.348,11.968 L22.348,15.496 L30.244,15.496 L30.244,19 L18.388,19 Z M32.956,19 L32.956,2.008 L37.084,2.008 L37.084,15.424 L43.66,15.424 L43.66,19 L32.956,19 Z M45.58,19 L45.58,2.008 L49.708,2.008 L49.708,15.424 L56.284,15.424 L56.284,19 L45.58,19 Z M75.916,10.432 C75.916,11.7760067 75.6840023,13.0039944 75.22,14.116 C74.7559977,15.2280056 74.1120041,16.179996 73.288,16.972 C72.4639959,17.764004 71.4840057,18.3759978 70.348,18.808 C69.2119943,19.2400022 67.9800066,19.456 66.652,19.456 C65.3239934,19.456 64.0960056,19.2400022 62.968,18.808 C61.8399944,18.3759978 60.8640041,17.764004 60.04,16.972 C59.2159959,16.179996 58.5720023,15.2280056 58.108,14.116 C57.6439977,13.0039944 57.412,11.7760067 57.412,10.432 C57.412,9.0719932 57.6439977,7.84400548 58.108,6.748 C58.5720023,5.65199452 59.2159959,4.72000384 60.04,3.952 C60.8640041,3.18399616 61.8399944,2.59200208 62.968,2.176 C64.0960056,1.75999792 65.3239934,1.552 66.652,1.552 C67.9800066,1.552 69.2119943,1.75999792 70.348,2.176 C71.4840057,2.59200208 72.4639959,3.18399616 73.288,3.952 C74.1120041,4.72000384 74.7559977,5.65199452 75.22,6.748 C75.6840023,7.84400548 75.916,9.0719932 75.916,10.432 Z M71.524,10.432 C71.524,9.69599632 71.4040012,9.0080032 71.164,8.368 C70.9239988,7.7279968 70.5920021,7.18000228 70.168,6.724 C69.7439979,6.26799772 69.232003,5.90800132 68.632,5.644 C68.031997,5.37999868 67.3720036,5.248 66.652,5.248 C65.9319964,5.248 65.276003,5.37999868 64.684,5.644 C64.091997,5.90800132 63.5800022,6.26799772 63.148,6.724 C62.7159978,7.18000228 62.3840012,7.7279968 62.152,8.368 C61.9199988,9.0080032 61.804,9.69599632 61.804,10.432 C61.804,11.2000038 61.9239988,11.9079968 62.164,12.556 C62.4040012,13.2040032 62.7359979,13.7599977 63.16,14.224 C63.5840021,14.6880023 64.091997,15.0519987 64.684,15.316 C65.276003,15.5800013 65.9319964,15.712 66.652,15.712 C67.3720036,15.712 68.027997,15.5800013 68.62,15.316 C69.212003,15.0519987 69.7239978,14.6880023 70.156,14.224 C70.5880022,13.7599977 70.9239988,13.2040032 71.164,12.556 C71.4040012,11.9079968 71.524,11.2000038 71.524,10.432 Z M93.388,5.152 C93.0519983,4.68799768 92.5960029,4.30800148 92.02,4.012 C91.4439971,3.71599852 90.7960036,3.568 90.076,3.568 C89.6919981,3.568 89.304002,3.61999948 88.912,3.724 C88.519998,3.82800052 88.1640016,3.99599884 87.844,4.228 C87.5239984,4.46000116 87.264001,4.74799828 87.064,5.092 C86.863999,5.43600172 86.764,5.8479976 86.764,6.328 C86.764,6.79200232 86.8559991,7.17999844 87.04,7.492 C87.2240009,7.80400156 87.4719984,8.06799892 87.784,8.284 C88.0960016,8.50000108 88.4639979,8.68399924 88.888,8.836 C89.3120021,8.98800076 89.7639976,9.1439992 90.244,9.304 C90.8200029,9.48000088 91.403997,9.67999888 91.996,9.904 C92.588003,10.1280011 93.1239976,10.4239982 93.604,10.792 C94.0840024,11.1600018 94.4759985,11.6199972 94.78,12.172 C95.0840015,12.7240028 95.236,13.4239958 95.236,14.272 C95.236,15.1520044 95.0720016,15.9159968 94.744,16.564 C94.4159984,17.2120032 93.9800027,17.7479979 93.436,18.172 C92.8919973,18.5960021 92.2640036,18.911999 91.552,19.12 C90.8399964,19.328001 90.1080038,19.432 89.356,19.432 C88.2839946,19.432 87.248005,19.2240021 86.248,18.808 C85.247995,18.3919979 84.4200033,17.7760041 83.764,16.96 L85.612,15.4 C86.012002,15.992003 86.5479966,16.4719982 87.22,16.84 C87.8920034,17.2080018 88.6199961,17.392 89.404,17.392 C89.804002,17.392 90.203998,17.3360006 90.604,17.224 C91.004002,17.1119994 91.3679984,16.9360012 91.696,16.696 C92.0240016,16.4559988 92.291999,16.1560018 92.5,15.796 C92.708001,15.4359982 92.812,15.0000026 92.812,14.488 C92.812,13.9759974 92.7040011,13.5480017 92.488,13.204 C92.2719989,12.8599983 91.9800018,12.5680012 91.612,12.328 C91.2439982,12.0879988 90.8160024,11.8840008 90.328,11.716 C89.8399976,11.5479992 89.3240027,11.3760009 88.78,11.2 C88.2359973,11.0399992 87.7000026,10.8440012 87.172,10.612 C86.6439974,10.3799988 86.1720021,10.0840018 85.756,9.724 C85.3399979,9.3639982 85.0040013,8.92000264 84.748,8.392 C84.4919987,7.86399736 84.364,7.20800392 84.364,6.424 C84.364,5.57599576 84.5359983,4.84800304 84.88,4.24 C85.2240017,3.63199696 85.6719972,3.128002 86.224,2.728 C86.7760028,2.327998 87.3999965,2.03600092 88.096,1.852 C88.7920035,1.66799908 89.4919965,1.576 90.196,1.576 C91.188005,1.576 92.1159957,1.75199824 92.98,2.104 C93.8440043,2.45600176 94.5399974,2.92799704 95.068,3.52 L93.388,5.152 Z M100.78,12.568 L100.852,12.568 L105.628,7.624 L108.652,7.624 L103.324,12.784 L109.108,19 L105.988,19 L100.852,13.096 L100.78,13.096 L100.78,19 L98.524,19 L98.524,0.856 L100.78,0.856 L100.78,12.568 Z M119.452,12.304 C119.436,11.8559978 119.360001,11.436002 119.224,11.044 C119.087999,10.651998 118.888001,10.3120014 118.624,10.024 C118.359999,9.73599856 118.032002,9.50800084 117.64,9.34 C117.247998,9.17199916 116.788003,9.088 116.26,9.088 C115.779998,9.088 115.328002,9.17199916 114.904,9.34 C114.479998,9.50800084 114.112002,9.73599856 113.8,10.024 C113.487998,10.3120014 113.232001,10.651998 113.032,11.044 C112.831999,11.436002 112.716,11.8559978 112.684,12.304 L119.452,12.304 Z M121.732,13.216 L121.732,13.6 C121.732,13.7280006 121.724,13.8559994 121.708,13.984 L112.684,13.984 C112.7,14.4640024 112.807999,14.9159979 113.008,15.34 C113.208001,15.7640021 113.475998,16.1319984 113.812,16.444 C114.148002,16.7560016 114.535998,16.9999991 114.976,17.176 C115.416002,17.3520009 115.883998,17.44 116.38,17.44 C117.148004,17.44 117.811997,17.2720017 118.372,16.936 C118.932003,16.5999983 119.371998,16.1920024 119.692,15.712 L121.276,16.984 C120.667997,17.784004 119.952004,18.3719981 119.128,18.748 C118.303996,19.1240019 117.388005,19.312 116.38,19.312 C115.515996,19.312 114.716004,19.1680014 113.98,18.88 C113.243996,18.5919986 112.612003,18.1880026 112.084,17.668 C111.555997,17.1479974 111.140002,16.5200037 110.836,15.784 C110.531998,15.0479963 110.38,14.2320045 110.38,13.336 C110.38,12.4559956 110.527999,11.6440037 110.824,10.9 C111.120001,10.1559963 111.531997,9.52000264 112.06,8.992 C112.588003,8.46399736 113.211996,8.05200148 113.932,7.756 C114.652004,7.45999852 115.427996,7.312 116.26,7.312 C117.092004,7.312 117.847997,7.44799864 118.528,7.72 C119.208003,7.99200136 119.783998,8.38399744 120.256,8.896 C120.728002,9.40800256 121.091999,10.0279964 121.348,10.756 C121.604001,11.4840036 121.732,12.3039954 121.732,13.216 Z M130.444,9.472 L127.42,9.472 L127.42,15.4 C127.42,16.0880034 127.547999,16.5799985 127.804,16.876 C128.060001,17.1720015 128.467997,17.32 129.028,17.32 C129.236001,17.32 129.459999,17.2960002 129.7,17.248 C129.940001,17.1999998 130.155999,17.1280005 130.348,17.032 L130.42,18.88 C130.147999,18.9760005 129.848002,19.0519997 129.52,19.108 C129.191998,19.1640003 128.852002,19.192 128.5,19.192 C127.427995,19.192 126.608003,18.896003 126.04,18.304 C125.471997,17.711997 125.188,16.8240059 125.188,15.64 L125.188,9.472 L123.004,9.472 L123.004,7.624 L125.188,7.624 L125.188,4.36 L127.42,4.36 L127.42,7.624 L130.444,7.624 L130.444,9.472 Z M140.74,10.504 C140.499999,10.1359982 140.140002,9.82800124 139.66,9.58 C139.179998,9.33199876 138.668003,9.208 138.124,9.208 C137.531997,9.208 137.008002,9.31999888 136.552,9.544 C136.095998,9.76800112 135.708002,10.0679981 135.388,10.444 C135.067998,10.8200019 134.824001,11.2559975 134.656,11.752 C134.487999,12.2480025 134.404,12.7679973 134.404,13.312 C134.404,13.8560027 134.487999,14.3759975 134.656,14.872 C134.824001,15.3680025 135.067998,15.8039981 135.388,16.18 C135.708002,16.5560019 136.099998,16.8559989 136.564,17.08 C137.028002,17.3040011 137.555997,17.416 138.148,17.416 C138.724003,17.416 139.247998,17.3040011 139.72,17.08 C140.192002,16.8559989 140.579998,16.5520019 140.884,16.168 L142.396,17.536 C141.915998,18.0960028 141.316004,18.5319984 140.596,18.844 C139.875996,19.1560016 139.060005,19.312 138.148,19.312 C137.267996,19.312 136.456004,19.1680014 135.712,18.88 C134.967996,18.5919986 134.324003,18.1880026 133.78,17.668 C133.235997,17.1479974 132.808002,16.5200037 132.496,15.784 C132.183998,15.0479963 132.028,14.2240046 132.028,13.312 C132.028,12.4159955 132.179998,11.6000037 132.484,10.864 C132.788002,10.1279963 133.211997,9.49600264 133.756,8.968 C134.300003,8.43999736 134.943996,8.03200144 135.688,7.744 C136.432004,7.45599856 137.235996,7.312 138.1,7.312 C138.900004,7.312 139.695996,7.4719984 140.488,7.792 C141.280004,8.1120016 141.907998,8.57599696 142.372,9.184 L140.74,10.504 Z M146.98,9.352 C147.252001,8.7919972 147.715997,8.312002 148.372,7.912 C149.028003,7.511998 149.763996,7.312 150.58,7.312 C151.316004,7.312 151.947997,7.43599876 152.476,7.684 C153.004003,7.93200124 153.443998,8.26399792 153.796,8.68 C154.148002,9.09600208 154.407999,9.5839972 154.576,10.144 C154.744001,10.7040028 154.828,11.3039968 154.828,11.944 L154.828,19 L152.572,19 L152.572,12.712 C152.572,12.2479977 152.536,11.8080021 152.464,11.392 C152.392,10.9759979 152.260001,10.6080016 152.068,10.288 C151.875999,9.9679984 151.616002,9.71200096 151.288,9.52 C150.959998,9.32799904 150.532003,9.232 150.004,9.232 C149.107996,9.232 148.372003,9.5719966 147.796,10.252 C147.219997,10.9320034 146.932,11.8399943 146.932,12.976 L146.932,19 L144.676,19 L144.676,0.856 L146.932,0.856 L146.932,9.352 L146.98,9.352 Z" id="hello-sketch-logo" fill="#503519"></path>
    </g>
</svg>